# xmcd
#
# Track frame offsets:
#	150
#	16235
#	29237
#	50677
#	70023
#	87527
#	105072
#	121968
#	138529
#	158065
#
# Disc length: 2349 seconds
#
# Revision: 4294901760
# Processed by: cddbd v1.5.2PL0 Copyright (c) Steve Scherf et al.
# Submitted via: EZCDAudioConverter 8.0.2.1
#
DISCID=81092b0a
DTITLE=Hoàng Thùy Linh - Đừng Vội Vàng
DYEAR=2011
DGENRE=
TTITLE0=Ngày không anh
TTITLE1=Chạy trốn
TTITLE2=Lại lần nữa
TTITLE3=Đừng Vội Vàng
TTITLE4=Em sẽ là giấc mơ
TTITLE5=Sợi dây
TTITLE6=Trôi theo thời gian
TTITLE7=Kỷ niệm
TTITLE8=Cô đơn là nỗi đau
TTITLE9=Giấu
EXTD=
EXTT0=
EXTT1=
EXTT2=
EXTT3=
EXTT4=
EXTT5=
EXTT6=
EXTT7=
EXTT8=
EXTT9=
PLAYORDER=
